<?xml version="1.0" standalone="no"?>
<!DOCTYPE svg PUBLIC "-//W3C//DTD SVG 20010904//EN"
 "http://www.w3.org/TR/2001/REC-SVG-20010904/DTD/svg10.dtd">
<svg version="1.0" xmlns="http://www.w3.org/2000/svg"
 width="614.000000pt" height="461.000000pt" viewBox="0 0 614.000000 461.000000"
 preserveAspectRatio="xMidYMid meet">

<g transform="translate(0.000000,461.000000) scale(0.100000,-0.100000)"
fill="#000000" stroke="none">
<path d="M5930 4364 c-852 -371 -1914 -983 -2776 -1599 -992 -710 -2004 -1621
-2718 -2447 -68 -79 -123 -144 -121 -146 4 -4 582 345 875 528 1542 964 2786
1879 4158 3059 320 275 792 692 780 690 -2 0 -91 -38 -198 -85z"/>
<path d="M2975 4349 c-690 -59 -1274 -439 -1608 -1044 -232 -422 -300 -952
-183 -1425 l23 -95 -57 -60 c-123 -130 -225 -265 -250 -330 l-10 -26 33 23
c19 13 881 646 1916 1408 1515 1114 1878 1386 1857 1388 -35 4 -212 -57 -344
-119 l-111 -51 -64 40 c-335 211 -805 325 -1202 291z m356 -204 c217 -25 378
-72 577 -166 67 -31 122 -62 122 -68 0 -6 -4 -11 -8 -11 -12 0 -383 -221 -535
-318 -736 -472 -1589 -1125 -2049 -1570 l-66 -65 -11 39 c-16 56 -41 277 -41
362 0 178 40 412 102 591 144 424 449 784 843 999 329 179 695 251 1066 207z"/>
<path d="M3460 1934 c-1042 -767 -1904 -1401 -1915 -1410 -19 -14 -17 -15 28
-10 67 8 183 48 318 112 63 30 120 54 126 54 6 0 37 -16 69 -36 72 -43 254
-132 347 -168 239 -94 593 -143 852 -117 437 43 789 188 1124 461 292 238 523
587 635 960 100 335 110 722 26 1051 -24 93 -34 70 78 192 104 114 225 287
211 301 -2 2 -857 -623 -1899 -1390z m1456 653 c21 -162 15 -408 -16 -562 -97
-494 -362 -895 -775 -1172 -455 -305 -1025 -384 -1550 -216 -112 36 -327 131
-339 151 -4 6 7 18 26 28 18 9 103 58 189 109 758 449 1654 1113 2324 1723
128 117 117 122 141 -61z"/>
</g>
</svg>
